<?xml version="1.0" standalone="no"?><!DOCTYPE svg PUBLIC "-//W3C//DTD SVG 1.1//EN" "http://www.w3.org/Graphics/SVG/1.1/DTD/svg11.dtd"><svg t="1667221236017" class="icon" viewBox="0 0 1024 1024" version="1.1" xmlns="http://www.w3.org/2000/svg" p-id="16390" xmlns:xlink="http://www.w3.org/1999/xlink" width="200" height="200"><path d="M954.5 890.71h-67.94V568.26a71 71 0 0 0-70.88-70.88H527.24a71 71 0 0 0-70.88 70.88v322.45h-77.83V298.07h224.11v39.17a57.78 57.78 0 1 0 36.87 0V298A82.16 82.16 0 0 0 720 216v-93.7a18.44 18.44 0 0 0-18.44-18.44H91.11a18.44 18.44 0 0 0-18.44 18.44V216a82.18 82.18 0 0 0 82.08 82.07h68.9v592.64h-73a18.44 18.44 0 1 0 0 36.87H954.5a18.44 18.44 0 0 0 0-36.87zM642 392a20.9 20.9 0 1 1-20.9-20.9A20.92 20.92 0 0 1 642 392zM154.75 261.19a45.25 45.25 0 0 1-45.2-45.19v-75.26h573.56V216a45.25 45.25 0 0 1-45.2 45.19z m186.9 629.52h-81.12V298.25h81.12z m508 0H493.23V568.26a34 34 0 0 1 34-34h288.45a34 34 0 0 1 34 34z" fill="#303030" p-id="16391"></path><path d="M671.46 612.92A99.56 99.56 0 1 0 771 712.48a99.67 99.67 0 0 0-99.54-99.56z m22 182.65a18.44 18.44 0 0 1-14.15-34.06 60.12 60.12 0 0 0 32.71-32.78 18.44 18.44 0 1 1 34.08 14.07 96.77 96.77 0 0 1-52.59 52.77z" fill="#FFFFFF" p-id="16392"></path><path d="M815.68 534.25H527.24a34 34 0 0 0-34 34v322.46h356.45V568.26a34 34 0 0 0-34.01-34.01zM671.46 848.91c-75.24 0-136.44-61.2-136.44-136.43S596.22 576 671.46 576s136.43 61.2 136.43 136.44-61.19 136.47-136.43 136.47zM260.53 298.25h81.12V890.7h-81.12z" fill="#FFFFFF" p-id="16393"></path><path d="M319.53 298.25h22.12V890.7h-22.12z" fill="#DDDDDD" p-id="16394"></path><path d="M683.11 140.74V216a45.25 45.25 0 0 1-45.2 45.19H154.75a45.25 45.25 0 0 1-45.2-45.19v-75.26z" fill="#FFFFFF" p-id="16395"></path><path d="M683.11 140.74V216a45.25 45.25 0 0 1-45.2 45.19h-29.83A63.45 63.45 0 0 0 626.91 216v-75.26z" fill="#DDDDDD" p-id="16396"></path><path d="M671.46 576C596.22 576 535 637.24 535 712.48s61.2 136.43 136.44 136.43 136.43-61.2 136.43-136.43S746.7 576 671.46 576z m0 236A99.56 99.56 0 1 1 771 712.48 99.68 99.68 0 0 1 671.46 812z" fill="#303030" p-id="16397"></path><path d="M671.46 612.92A99.56 99.56 0 1 0 771 712.48a99.67 99.67 0 0 0-99.54-99.56z m22 182.65a18.44 18.44 0 0 1-14.15-34.06 60.12 60.12 0 0 0 32.71-32.78 18.44 18.44 0 1 1 34.08 14.07 96.77 96.77 0 0 1-52.59 52.77z" fill="#5AD1BA" p-id="16398"></path><path d="M621.07 392m-20.9 0a20.9 20.9 0 1 0 41.8 0 20.9 20.9 0 1 0-41.8 0Z" fill="#5AD1BA" p-id="16399"></path><path d="M611.26 718.33a18.44 18.44 0 0 1-17-25.48 99.51 99.51 0 0 1 54.15-54.27 18.44 18.44 0 1 1 14.14 34.06 62.84 62.84 0 0 0-34.21 34.28 18.44 18.44 0 0 1-17.08 11.41z" fill="#FFFFFF" p-id="16400"></path><path d="M746.15 742.8a96.77 96.77 0 0 1-52.64 52.77 18.44 18.44 0 0 1-14.15-34.06 60.12 60.12 0 0 0 32.71-32.78 18.44 18.44 0 1 1 34.08 14.07z" fill="#33AF97" p-id="16401"></path><path d="M84.58 927.58h-13a18.44 18.44 0 1 1 0-36.87h13a18.44 18.44 0 0 1 0 36.87z" fill="#303030" p-id="16402"></path></svg>